<?xml version="1.0" encoding="UTF-8"?>
<svg width="57px" height="53px" viewBox="0 0 57 53" version="1.1" xmlns="http://www.w3.org/2000/svg" xmlns:xlink="http://www.w3.org/1999/xlink">
    <!-- Generator: Sketch 54.1 (76490) - https://sketchapp.com -->
    <title>Ivis Logo_v1</title>
    <desc>Created with Sketch.</desc>
    <g id="1-UI" stroke="none" stroke-width="1" fill="none" fill-rule="evenodd">
        <g id="1.1.1-Homepage" transform="translate(-120.000000, -4610.000000)" fill-rule="nonzero">
            <g id="9-Footer" transform="translate(0.000000, 4490.000000)">
                <g id="Ivis-Logo_v1" transform="translate(120.000000, 120.000000)">
                    <g id="_Group_2">
                        <path d="M11.2331707,16.2917391 C11.4556098,16.0981739 11.6085366,15.9829565 11.6085366,15.9829565 C11.474572,16.0747645 11.3489681,16.1780884 11.2331707,16.2917391 L11.2331707,16.2917391 Z" id="_Path_" fill="#A81E36"></path>
                        <path d="M48.4268293,3.74226087 C49.1497561,3.65930435 49.7104878,4.28147826 50.1321951,5.41982609 C50.0070732,4.876 49.2470732,2.08313043 46.6519512,1.36417391 C45.0812464,2.37505038 43.6748199,3.61834139 42.4812195,5.05113043 C39.8073171,8.07443478 34.6031707,17.9554783 31.9709756,22.0433913 L33.4492683,24.0758261 C35.9609756,20.1676522 44.0939024,4.24921739 48.4268293,3.74226087 Z" id="_Path_2" fill="#A81E36"></path>
                        <path d="M56.8239024,25.0713043 C56.8239024,10.6645217 54.5068293,2.70530435 51.6429268,1.03695652 C50.0395122,0.115217391 48.3619512,0.35026087 46.6519512,1.36417391 C49.2470732,2.08773913 50.0117073,4.8806087 50.1321951,5.41982609 C52.4260976,11.5770435 50.2712195,32.1502609 47.9680488,37.0446957 C45.2663415,42.7871304 39.9139024,33.1088696 34.6078049,25.6566087 L33.4678049,24.062 L31.984878,22.0295652 C27.8141463,16.4392174 24.0604878,12.4665217 18.3882927,11.66 C11.5529268,10.6875652 9.72243902,14.7846957 9.72243902,14.7846957 C9.34608476,15.9776003 9.27755878,17.2455005 9.52317073,18.4716522 C9.94564719,17.64948 10.5230226,16.9156874 11.2239024,16.3101739 C11.3396998,16.1965232 11.4653037,16.0931992 11.5992683,16.0013913 C15.8070732,13.097913 17.9063415,16.7065217 24.0604878,26.9424348 L25.8631707,29.9242609 L26.79,31.4727826 C37.7497561,49.396 43.7092683,52.6405217 47.2404878,52.5713913 C50.7717073,52.5022609 56.8378049,41.1925217 56.8239024,25.0713043 Z" id="_Path_3" fill="#CC2036"></path>
                        <path d="M11.2331707,16.2917391 C10.5322909,16.8972526 9.95491548,17.6310452 9.53243902,18.4532174 C10.3619512,22.836087 14.7134146,26.7857391 18.0639024,28.9426087 C20.4690244,30.4911304 23.5136585,30.3805217 25.872439,29.9058261 L24.0697561,26.924 C18.9860976,25.8086957 8.08658537,19.3841739 11.2331707,16.2917391 Z" id="_Path_4" fill="#A81E36"></path>
                        <ellipse id="_Path_5" fill="#A81E36" cx="5.18560976" cy="8.97773913" rx="5.18560976" ry="3.25834783"></ellipse>
                    </g>
                </g>
            </g>
        </g>
    </g>
</svg>